<?xml version="1.0" encoding="UTF-8" standalone="no"?>
<svg
   xmlns:dc="http://purl.org/dc/elements/1.1/"
   xmlns:cc="http://creativecommons.org/ns#"
   xmlns:rdf="http://www.w3.org/1999/02/22-rdf-syntax-ns#"
   xmlns:svg="http://www.w3.org/2000/svg"
   xmlns="http://www.w3.org/2000/svg"
   height="210.7"
   width="171"
   xml:space="preserve"
   viewBox="0 0 171 210.7"
   y="0px"
   x="0px"
   id="Layer_1"
   version="1.1"><metadata
   id="metadata473"><rdf:RDF><cc:Work
       rdf:about=""><dc:format>image/svg+xml</dc:format><dc:type
         rdf:resource="http://purl.org/dc/dcmitype/StillImage" /><dc:title></dc:title></cc:Work></rdf:RDF></metadata><defs
   id="defs471">
	
	
	
	
	
	
	
	
	
	
	
	
	
	
	
	
	
	
	
	
	
	
	
	
	

	
	
	
	
	
	
	
	
	
	
	
	
	
</defs>
<style
   id="style2"
   type="text/css">
	.st0{fill:#91CE74;}
	.st1{fill:#EEF2F4;}
	.st2{opacity:0.4;}
	.st3{fill:none;stroke:#424242;stroke-width:6;stroke-miterlimit:10;}
	.st4{fill:#424242;stroke:#424242;stroke-width:6;stroke-miterlimit:10;}
	.st5{fill:#FFFFFF;}
	.st6{fill:#D8D8D8;}
	.st7{fill:none;stroke:#30292C;stroke-width:4;stroke-linecap:round;stroke-linejoin:round;stroke-miterlimit:10;}
	.st8{fill:#FF415B;}
	.st9{fill:#EC1CE4;}
	.st10{fill:none;stroke:#133B4F;stroke-width:4;stroke-linecap:round;stroke-linejoin:round;stroke-miterlimit:10;}
	.st11{fill:#67CC70;}
	.st12{fill:#30292C;}
	.st13{fill:#CE7867;}
	.st14{fill:#5CECFF;}
	.st15{fill:#CCCCCC;}
	.st16{fill:#8E5645;}
	.st17{fill:#AE6553;}
	.st18{fill:#FFC25D;}
	.st19{fill:#00C899;}
	.st20{fill:#959595;}
	.st21{fill:#00B2C8;}
	.st22{fill:none;stroke:#30292C;stroke-width:8;stroke-linecap:round;stroke-linejoin:round;stroke-miterlimit:10;}
</style>

<g
   transform="translate(-421.48148,-359.72357)"
   id="g217">
	<g
   id="g37">
		<g
   id="g7">
			<path
   id="path5"
   d="m 63.2,959.2 c 0,2.5 -1.2,3.7 -2.6,3.7 -1.1,0 -1.9,-0.5 -2.1,-1.4 -0.4,0.5 -1,0.8 -1.8,0.8 -1.5,0 -2.6,-1.2 -2.6,-2.8 0,-1.6 1.1,-2.8 2.6,-2.8 0.7,0 1.2,0.3 1.6,0.7 v -0.5 h 1.6 v 3.9 c 0,0.8 0.3,1.4 1,1.4 0.9,0 1.7,-0.9 1.7,-3 0,-3 -2.3,-5.3 -5.4,-5.3 -3.1,0 -5.6,2.4 -5.6,5.7 0,3.3 2.5,5.7 5.9,5.7 1.1,0 2.1,-0.2 2.9,-0.4 v 0.6 c -0.8,0.3 -1.7,0.4 -2.9,0.4 -3.7,0 -6.5,-2.6 -6.5,-6.2 0,-3.4 2.7,-6.2 6.2,-6.2 3.9,-0.2 6,2.9 6,5.7 z m -4.9,0.3 c 0,-0.8 -0.6,-1.4 -1.3,-1.4 -0.8,0 -1.3,0.5 -1.3,1.4 0,0.8 0.6,1.3 1.3,1.3 0.8,0.1 1.3,-0.5 1.3,-1.3 z"
   class="st1" />
		</g>
		<g
   id="g11">
			<path
   id="path9"
   d="m 69.4,955.1 v 2 c -1.2,-0.1 -2.6,0.5 -2.6,2.4 v 4.3 h -1.9 v -8.6 h 1.9 v 1.4 c 0.5,-1.1 1.5,-1.5 2.6,-1.5 z"
   class="st1" />
		</g>
		<g
   id="g15">
			<path
   id="path13"
   d="m 74.6,962.3 c 1,0 1.8,-0.5 2.2,-1.1 l 1.5,0.9 c -0.8,1.2 -2.1,1.9 -3.8,1.9 -2.8,0 -4.7,-1.9 -4.7,-4.5 0,-2.5 1.8,-4.5 4.5,-4.5 2.6,0 4.3,2.1 4.3,4.5 0,0.3 0,0.5 -0.1,0.8 h -6.8 c 0.4,1.3 1.5,2 2.9,2 z m 2.3,-3.5 c -0.3,-1.5 -1.3,-2.1 -2.5,-2.1 -1.4,0 -2.3,0.8 -2.6,2.1 z"
   class="st1" />
		</g>
		<g
   id="g19">
			<path
   id="path17"
   d="m 88.9,955.2 v 8.6 H 87 v -1.2 c -0.7,0.9 -1.7,1.5 -3,1.5 -2.3,0 -4.3,-2 -4.3,-4.5 0,-2.6 1.9,-4.5 4.3,-4.5 1.3,0 2.3,0.5 3,1.4 v -1.2 z m -1.8,4.3 c 0,-1.6 -1.2,-2.7 -2.7,-2.7 -1.5,0 -2.7,1.1 -2.7,2.7 0,1.6 1.2,2.7 2.7,2.7 1.5,0.1 2.7,-1.1 2.7,-2.7 z"
   class="st1" />
		</g>
		<g
   id="g23">
			<path
   id="path21"
   d="M 91.1,951.3 H 93 v 12.5 h -1.9 z"
   class="st1" />
		</g>
		<g
   id="g27">
			<path
   id="path25"
   d="m 102.9,955.2 -3.3,8.6 h -2.1 l -3.3,-8.6 h 2 l 2.4,6.5 2.4,-6.5 z"
   class="st1" />
		</g>
		<g
   id="g31">
			<path
   id="path29"
   d="m 104.2,955.2 h 1.9 v 8.9 c 0,2.4 -1.2,3.5 -3.5,3.3 v -1.8 c 1.1,0.1 1.7,-0.3 1.7,-1.5 z m -0.2,-2.4 c 0,-0.7 0.5,-1.2 1.2,-1.2 0.7,0 1.2,0.5 1.2,1.2 0,0.6 -0.5,1.2 -1.2,1.2 -0.7,0 -1.2,-0.6 -1.2,-1.2 z"
   class="st1" />
		</g>
		<g
   id="g35">
			<path
   id="path33"
   d="m 116,955.2 -3.3,8.8 c -0.8,2.2 -2.2,3.3 -4.2,3.2 v -1.7 c 1.2,0.1 1.9,-0.5 2.3,-1.7 l 0.1,-0.2 -3.6,-8.4 h 2 l 2.6,6.2 2.2,-6.2 z"
   class="st1" />
		</g>
	</g>
	<g
   id="g49">
		<path
   id="path39"
   d="m 211.9,938.7 c 0,2.1 -1.5,3.8 -3.6,3.8 h -3 v -7.6 h 3 c 2.1,0 3.6,1.7 3.6,3.8 z m -1,0 c 0,-1.6 -1.1,-2.9 -2.6,-2.9 h -2 v 5.7 h 2 c 1.5,0.1 2.6,-1.2 2.6,-2.8 z"
   class="st1" />
		<path
   id="path41"
   d="m 219.5,940.8 h -3.4 l -0.6,1.7 h -1.1 l 2.8,-7.6 h 1.1 l 2.8,7.6 H 220 Z m -0.3,-0.9 -1.4,-3.8 -1.4,3.8 z"
   class="st1" />
		<path
   id="path43"
   d="m 226.4,939.4 v 3.1 h -1 v -3.1 l -2.7,-4.5 h 1.1 l 2.1,3.6 2.1,-3.6 h 1.1 z"
   class="st1" />
		<path
   id="path45"
   d="m 242.6,941.1 h -0.9 v 1.4 h -1 v -1.4 h -3.9 v -0.9 l 2.7,-5.2 h 1.1 l -2.7,5.2 h 2.8 V 938 h 1 v 2.2 h 0.9 z"
   class="st1" />
		<path
   id="path47"
   d="m 250.8,940.4 c 0,1.4 -1.1,2.2 -2.6,2.2 -1.5,0 -2.6,-0.8 -2.6,-2.2 0,-0.8 0.5,-1.5 1.2,-1.9 -0.6,-0.3 -0.9,-0.9 -0.9,-1.7 0,-1.5 1.2,-2.2 2.4,-2.2 1.2,0 2.4,0.7 2.4,2.2 0,0.8 -0.4,1.3 -0.9,1.7 0.5,0.4 1,1.1 1,1.9 z m -1,0 c 0,-0.9 -0.7,-1.3 -1.6,-1.3 -0.9,0 -1.6,0.4 -1.6,1.3 0,0.9 0.7,1.3 1.6,1.3 0.9,0 1.6,-0.5 1.6,-1.3 z m -3,-3.5 c 0,0.8 0.6,1.2 1.4,1.2 0.7,0 1.4,-0.4 1.4,-1.2 0,-0.8 -0.6,-1.2 -1.4,-1.2 -0.7,0 -1.4,0.4 -1.4,1.2 z"
   class="st1" />
	</g>
	<g
   id="g71">
		<path
   id="path51"
   d="m 58.9,938.7 c 0,2.1 -1.5,3.8 -3.6,3.8 h -3 v -7.6 h 3 c 2.1,0 3.6,1.7 3.6,3.8 z m -1,0 c 0,-1.6 -1.1,-2.9 -2.6,-2.9 h -2 v 5.7 h 2 c 1.5,0.1 2.6,-1.2 2.6,-2.8 z"
   class="st1" />
		<path
   id="path53"
   d="m 67,941.6 v 1 H 62.4 V 935 h 4.5 v 1 h -3.5 v 2.3 h 3.2 v 0.9 h -3.2 v 2.4 z"
   class="st1" />
		<path
   id="path55"
   d="m 70,940.8 0.9,-0.5 c 0.3,0.8 0.9,1.4 2,1.4 1.1,0 1.6,-0.5 1.6,-1.2 0,-0.8 -0.7,-1 -1.8,-1.4 -1.2,-0.4 -2.4,-0.8 -2.4,-2.2 0,-1.4 1.1,-2.2 2.4,-2.2 1.3,0 2.2,0.7 2.6,1.7 l -0.8,0.5 c -0.3,-0.7 -0.8,-1.2 -1.7,-1.2 -0.8,0 -1.4,0.4 -1.4,1.1 0,0.7 0.5,1 1.6,1.3 1.3,0.4 2.6,0.8 2.6,2.3 0,1.3 -1.1,2.2 -2.6,2.2 -1.5,0.1 -2.6,-0.7 -3,-1.8 z"
   class="st1" />
		<path
   id="path57"
   d="m 80,934.9 v 7.6 h -1 v -7.6 z"
   class="st1" />
		<path
   id="path59"
   d="m 91.3,939.2 c 0,1.9 -1.4,3.5 -3.7,3.5 -2.4,0 -4,-1.8 -4,-4 0,-2.2 1.7,-4 4,-4 1.4,0 2.7,0.8 3.3,1.8 L 90,937 c -0.4,-0.8 -1.4,-1.4 -2.4,-1.4 -1.8,0 -3,1.3 -3,3 0,1.7 1.2,3 3,3 1.6,0 2.5,-0.9 2.7,-2 h -2.8 v -0.9 h 3.8 z"
   class="st1" />
		<path
   id="path61"
   d="m 100.6,934.9 v 7.6 h -0.8 l -3.9,-5.7 v 5.7 h -1 v -7.6 h 0.8 l 3.9,5.7 v -5.7 z"
   class="st1" />
		<path
   id="path63"
   d="m 109.1,941.6 v 1 h -4.6 V 935 h 4.5 v 1 h -3.5 v 2.3 h 3.2 v 0.9 h -3.2 v 2.4 z"
   class="st1" />
		<path
   id="path65"
   d="m 119.2,938.7 c 0,2.1 -1.5,3.8 -3.6,3.8 h -3 v -7.6 h 3 c 2,0 3.6,1.7 3.6,3.8 z m -1,0 c 0,-1.6 -1.1,-2.9 -2.6,-2.9 h -2 v 5.7 h 2 c 1.5,0.1 2.6,-1.2 2.6,-2.8 z"
   class="st1" />
		<path
   id="path67"
   d="m 133.2,940.4 c 0,1.2 -1,2.2 -2.2,2.2 h -3.3 V 935 h 3 c 1.2,0 2.1,0.9 2.1,2.1 0,0.7 -0.3,1.2 -0.8,1.6 0.7,0.2 1.2,0.8 1.2,1.7 z m -4.5,-4.6 v 2.3 h 2 c 0.6,0 1.1,-0.5 1.1,-1.2 0,-0.6 -0.5,-1.2 -1.1,-1.2 h -2 z m 3.5,4.5 c 0,-0.7 -0.5,-1.2 -1.2,-1.2 h -2.3 v 2.5 h 2.3 c 0.7,0 1.2,-0.6 1.2,-1.3 z"
   class="st1" />
		<path
   id="path69"
   d="m 139.4,939.4 v 3.1 h -1 v -3.1 l -2.7,-4.5 h 1.1 l 2.1,3.6 2.1,-3.6 h 1.1 z"
   class="st1" />
	</g>
	<g
   id="g93">
		<path
   id="path73"
   d="m 217.3,964.3 h -2 v -8.8 l -3.8,6.2 h -0.2 l -3.8,-6.2 v 8.9 h -2 V 952 h 2.2 l 3.7,6.2 3.8,-6.2 h 2.2 z"
   class="st1" />
		<path
   id="path75"
   d="m 224,962.8 c 1.1,0 1.9,-0.5 2.3,-1.1 l 1.6,0.9 c -0.8,1.2 -2.1,1.9 -3.9,1.9 -2.9,0 -4.8,-2 -4.8,-4.7 0,-2.6 1.9,-4.7 4.7,-4.7 2.6,0 4.4,2.1 4.4,4.7 0,0.3 0,0.5 -0.1,0.8 h -7 c 0.3,1.5 1.4,2.2 2.8,2.2 z m 2.4,-3.7 c -0.3,-1.5 -1.4,-2.2 -2.5,-2.2 -1.4,0 -2.4,0.8 -2.7,2.2 z"
   class="st1" />
		<path
   id="path77"
   d="m 238.8,951.9 v 12.4 h -1.9 V 963 c -0.7,0.9 -1.7,1.5 -3.1,1.5 -2.4,0 -4.4,-2 -4.4,-4.7 0,-2.6 2,-4.7 4.4,-4.7 1.4,0 2.4,0.6 3.1,1.5 v -4.8 h 1.9 z m -1.9,8 c 0,-1.6 -1.2,-2.8 -2.8,-2.8 -1.6,0 -2.8,1.2 -2.8,2.8 0,1.6 1.2,2.8 2.8,2.8 1.6,0 2.8,-1.2 2.8,-2.8 z"
   class="st1" />
		<path
   id="path79"
   d="m 240.8,952.9 c 0,-0.7 0.5,-1.2 1.2,-1.2 0.7,0 1.2,0.5 1.2,1.2 0,0.7 -0.5,1.2 -1.2,1.2 -0.6,0 -1.2,-0.5 -1.2,-1.2 z m 0.3,2.5 h 1.9 v 8.9 h -1.9 z"
   class="st1" />
		<path
   id="path81"
   d="m 244.7,959.9 c 0,-2.6 2,-4.7 4.7,-4.7 1.7,0 3.2,0.9 3.9,2.3 l -1.6,1 c -0.4,-0.8 -1.3,-1.4 -2.3,-1.4 -1.6,0 -2.7,1.2 -2.7,2.8 0,1.6 1.2,2.8 2.7,2.8 1.1,0 1.9,-0.5 2.4,-1.4 l 1.6,0.9 c -0.7,1.4 -2.2,2.3 -4,2.3 -2.7,0 -4.7,-2 -4.7,-4.6 z"
   class="st1" />
		<path
   id="path83"
   d="m 263.5,955.4 v 8.9 h -1.9 V 963 c -0.7,0.9 -1.7,1.5 -3.1,1.5 -2.4,0 -4.4,-2 -4.4,-4.7 0,-2.6 2,-4.7 4.4,-4.7 1.4,0 2.4,0.6 3.1,1.5 v -1.3 h 1.9 z m -1.9,4.5 c 0,-1.6 -1.2,-2.8 -2.8,-2.8 -1.6,0 -2.8,1.2 -2.8,2.8 0,1.6 1.2,2.8 2.8,2.8 1.6,0 2.8,-1.2 2.8,-2.8 z"
   class="st1" />
		<path
   id="path85"
   d="m 265.8,951.4 h 1.9 v 12.9 h -1.9 z"
   class="st1" />
		<path
   id="path87"
   d="m 281.5,962.3 v 1.9 h -7.1 v -12.4 h 2 v 10.4 z"
   class="st1" />
		<path
   id="path89"
   d="m 291.5,955.4 v 8.9 h -1.9 V 963 c -0.7,0.9 -1.7,1.5 -3.1,1.5 -2.4,0 -4.4,-2 -4.4,-4.7 0,-2.6 2,-4.7 4.4,-4.7 1.4,0 2.4,0.6 3.1,1.5 v -1.3 h 1.9 z m -1.9,4.5 c 0,-1.6 -1.2,-2.8 -2.8,-2.8 -1.6,0 -2.8,1.2 -2.8,2.8 0,1.6 1.2,2.8 2.8,2.8 1.6,0 2.8,-1.2 2.8,-2.8 z"
   class="st1" />
		<path
   id="path91"
   d="m 303.2,959.9 c 0,2.6 -2,4.7 -4.4,4.7 -1.4,0 -2.4,-0.6 -3.1,-1.5 v 1.3 h -1.9 V 952 h 1.9 v 4.8 c 0.7,-0.9 1.7,-1.5 3.1,-1.5 2.4,-0.1 4.4,1.9 4.4,4.6 z m -1.9,0 c 0,-1.6 -1.2,-2.8 -2.8,-2.8 -1.6,0 -2.8,1.2 -2.8,2.8 0,1.6 1.2,2.8 2.8,2.8 1.6,0 2.8,-1.2 2.8,-2.8 z"
   class="st1" />
	</g>
	<g
   id="g215">
		<g
   id="g143">
			<g
   id="g97">
				<path
   id="path95"
   d="m 846.1,938.7 c 0,2.1 -1.5,3.8 -3.6,3.8 h -3 v -7.6 h 3 c 2.1,0 3.6,1.7 3.6,3.8 z m -0.9,0 c 0,-1.6 -1.1,-2.9 -2.6,-2.9 h -2 v 5.7 h 2 c 1.5,0.1 2.6,-1.2 2.6,-2.8 z"
   class="st1" />
			</g>
			<g
   id="g101">
				<path
   id="path99"
   d="m 849.3,938.7 c 0,-2.2 1.7,-4 3.9,-4 2.2,0 4,1.8 4,4 0,2.2 -1.7,4 -4,4 -2.2,0 -3.9,-1.8 -3.9,-4 z m 6.8,0 c 0,-1.7 -1.3,-3 -2.9,-3 -1.7,0 -2.9,1.3 -2.9,3 0,1.7 1.3,3 2.9,3 1.7,0 2.9,-1.3 2.9,-3 z"
   class="st1" />
			</g>
			<g
   id="g105">
				<path
   id="path103"
   d="m 859.8,934.9 h 1.1 l 1.7,6.3 1.9,-6.3 h 1 l 1.9,6.3 1.7,-6.3 h 1.1 l -2.2,7.6 h -1.2 l -1.8,-6.1 -1.8,6.1 H 862 Z"
   class="st1" />
			</g>
			<g
   id="g109">
				<path
   id="path107"
   d="m 879.3,934.9 v 7.6 h -0.8 l -3.9,-5.7 v 5.7 h -1 v -7.6 h 0.8 l 3.9,5.7 v -5.7 z"
   class="st1" />
			</g>
			<g
   id="g113">
				<path
   id="path111"
   d="m 887.5,941.6 v 1 h -4.3 V 935 h 1 v 6.7 h 3.3 z"
   class="st1" />
			</g>
			<g
   id="g117">
				<path
   id="path115"
   d="m 889.9,938.7 c 0,-2.2 1.7,-4 3.9,-4 2.2,0 4,1.8 4,4 0,2.2 -1.7,4 -4,4 -2.2,0 -3.9,-1.8 -3.9,-4 z m 6.9,0 c 0,-1.7 -1.3,-3 -2.9,-3 -1.7,0 -2.9,1.3 -2.9,3 0,1.7 1.3,3 2.9,3 1.6,0 2.9,-1.3 2.9,-3 z"
   class="st1" />
			</g>
			<g
   id="g121">
				<path
   id="path119"
   d="M 905.4,940.8 H 902 l -0.6,1.7 h -1.1 l 2.8,-7.6 h 1.1 l 2.8,7.6 h -1 z m -0.3,-0.9 -1.4,-3.8 -1.4,3.8 z"
   class="st1" />
			</g>
			<g
   id="g125">
				<path
   id="path123"
   d="m 916.9,938.7 c 0,2.1 -1.5,3.8 -3.6,3.8 h -3 v -7.6 h 3 c 2.1,0 3.6,1.7 3.6,3.8 z m -1,0 c 0,-1.6 -1.1,-2.9 -2.6,-2.9 h -2 v 5.7 h 2 c 1.6,0.1 2.6,-1.2 2.6,-2.8 z"
   class="st1" />
			</g>
			<g
   id="g129">
				<path
   id="path127"
   d="m 926.5,935.8 v 2.5 h 3.2 v 1 h -3.2 v 3.2 h -1 v -7.6 h 4.4 v 1 h -3.4 z"
   class="st1" />
			</g>
			<g
   id="g133">
				<path
   id="path131"
   d="m 936.2,939.6 h -1.8 v 2.9 h -1 v -7.6 h 3 c 1.3,0 2.4,1.1 2.4,2.4 0,1 -0.7,1.9 -1.6,2.2 l 1.8,3.1 h -1.1 z m -1.8,-0.9 h 2 c 0.8,0 1.4,-0.6 1.4,-1.4 0,-0.8 -0.6,-1.4 -1.4,-1.4 h -2 z"
   class="st1" />
			</g>
			<g
   id="g137">
				<path
   id="path135"
   d="m 941.9,938.7 c 0,-2.2 1.7,-4 3.9,-4 2.2,0 4,1.8 4,4 0,2.2 -1.7,4 -4,4 -2.2,0 -3.9,-1.8 -3.9,-4 z m 6.9,0 c 0,-1.7 -1.3,-3 -2.9,-3 -1.7,0 -2.9,1.3 -2.9,3 0,1.7 1.3,3 2.9,3 1.6,0 2.9,-1.3 2.9,-3 z"
   class="st1" />
			</g>
			<g
   id="g141">
				<path
   id="path139"
   d="m 960.4,942.5 h -1 v -6 l -2.5,4.2 h -0.1 l -2.5,-4.1 v 5.9 h -1 v -7.6 h 1.1 l 2.4,4 2.4,-4 h 1.1 z"
   class="st1" />
			</g>
		</g>
		<g
   id="g213">
			<g
   id="g147">
				<path
   id="path145"
   d="m 839.3,952.9 c 0,-0.7 0.5,-1.2 1.2,-1.2 0.7,0 1.2,0.5 1.2,1.2 0,0.7 -0.5,1.2 -1.2,1.2 -0.6,0 -1.2,-0.5 -1.2,-1.2 z m 0.3,2.5 h 1.9 v 8.9 h -1.9 z"
   class="st1" />
			</g>
			<g
   id="g151">
				<path
   id="path149"
   d="m 843.7,951.4 h 1.9 v 12.9 h -1.9 z"
   class="st1" />
			</g>
			<g
   id="g155">
				<path
   id="path153"
   d="m 847.8,951.4 h 1.9 v 12.9 h -1.9 z"
   class="st1" />
			</g>
			<g
   id="g159">
				<path
   id="path157"
   d="m 852,951.4 h 1.9 v 12.9 H 852 Z"
   class="st1" />
			</g>
			<g
   id="g163">
				<path
   id="path161"
   d="m 864,955.4 v 8.9 h -1.9 v -1.1 c -0.6,0.9 -1.5,1.4 -2.7,1.4 -2,0 -3.4,-1.3 -3.4,-3.6 v -5.4 h 1.9 v 5.2 c 0,1.3 0.8,2.1 2,2.1 1.3,0 2.2,-0.7 2.2,-2.5 v -4.7 h 1.9 z"
   class="st1" />
			</g>
			<g
   id="g167">
				<path
   id="path165"
   d="m 872.6,961.8 c 0,1.8 -1.5,2.7 -3.5,2.7 -1.8,0 -3,-0.8 -3.6,-2.1 l 1.6,-1 c 0.3,0.8 1,1.3 2,1.3 0.8,0 1.5,-0.3 1.5,-1 0,-1.6 -4.8,-0.7 -4.8,-3.9 0,-1.7 1.4,-2.7 3.2,-2.7 1.5,0 2.7,0.7 3.3,1.8 l -1.6,0.9 c -0.3,-0.7 -0.9,-1 -1.7,-1 -0.7,0 -1.3,0.3 -1.3,0.9 0.2,1.8 4.9,0.8 4.9,4.1 z"
   class="st1" />
			</g>
			<g
   id="g171">
				<path
   id="path169"
   d="m 876.7,957.3 v 4.2 c 0,1.1 0.7,1.1 2.2,1 v 1.7 c -2.9,0.4 -4.1,-0.5 -4.1,-2.8 v -4.2 h -1.6 v -1.8 h 1.6 v -1.9 l 1.9,-0.6 v 2.5 h 2.2 v 1.8 z"
   class="st1" />
			</g>
			<g
   id="g175">
				<path
   id="path173"
   d="m 885.4,955.3 v 2.1 c -1.3,-0.1 -2.7,0.5 -2.7,2.5 v 4.5 h -1.9 v -8.9 h 1.9 v 1.5 c 0.5,-1.3 1.5,-1.7 2.7,-1.7 z"
   class="st1" />
			</g>
			<g
   id="g179">
				<path
   id="path177"
   d="m 895.3,955.4 v 8.9 h -1.9 V 963 c -0.7,0.9 -1.7,1.5 -3.1,1.5 -2.4,0 -4.4,-2 -4.4,-4.7 0,-2.6 2,-4.7 4.4,-4.7 1.4,0 2.4,0.6 3.1,1.5 v -1.3 h 1.9 z m -1.9,4.5 c 0,-1.6 -1.2,-2.8 -2.8,-2.8 -1.6,0 -2.8,1.2 -2.8,2.8 0,1.6 1.2,2.8 2.8,2.8 1.6,0 2.8,-1.2 2.8,-2.8 z"
   class="st1" />
			</g>
			<g
   id="g183">
				<path
   id="path181"
   d="m 900.3,957.3 v 4.2 c 0,1.1 0.7,1.1 2.2,1 v 1.7 c -2.9,0.4 -4.1,-0.5 -4.1,-2.8 v -4.2 h -1.6 v -1.8 h 1.6 v -1.9 l 1.9,-0.6 v 2.5 h 2.2 v 1.8 z"
   class="st1" />
			</g>
			<g
   id="g187">
				<path
   id="path185"
   d="m 903.9,952.9 c 0,-0.7 0.5,-1.2 1.2,-1.2 0.7,0 1.2,0.5 1.2,1.2 0,0.7 -0.5,1.2 -1.2,1.2 -0.6,0 -1.2,-0.5 -1.2,-1.2 z m 0.3,2.5 h 1.9 v 8.9 h -1.9 z"
   class="st1" />
			</g>
			<g
   id="g191">
				<path
   id="path189"
   d="m 907.8,959.9 c 0,-2.6 2.1,-4.7 4.7,-4.7 2.6,0 4.7,2 4.7,4.7 0,2.6 -2.1,4.7 -4.7,4.7 -2.6,-0.1 -4.7,-2.1 -4.7,-4.7 z m 7.5,0 c 0,-1.6 -1.2,-2.8 -2.8,-2.8 -1.6,0 -2.8,1.2 -2.8,2.8 0,1.6 1.2,2.8 2.8,2.8 1.6,0 2.8,-1.2 2.8,-2.8 z"
   class="st1" />
			</g>
			<g
   id="g195">
				<path
   id="path193"
   d="m 927,958.9 v 5.4 h -1.9 v -5.2 c 0,-1.3 -0.8,-2.1 -2,-2.1 -1.3,0 -2.2,0.7 -2.2,2.5 v 4.7 H 919 v -8.9 h 1.9 v 1.1 c 0.6,-0.9 1.5,-1.4 2.7,-1.4 1.9,0.2 3.4,1.6 3.4,3.9 z"
   class="st1" />
			</g>
			<g
   id="g199">
				<path
   id="path197"
   d="m 935.5,961.8 c 0,1.8 -1.5,2.7 -3.5,2.7 -1.8,0 -3,-0.8 -3.6,-2.1 l 1.6,-1 c 0.3,0.8 1,1.3 2,1.3 0.8,0 1.5,-0.3 1.5,-1 0,-1.6 -4.8,-0.7 -4.8,-3.9 0,-1.7 1.4,-2.7 3.2,-2.7 1.5,0 2.7,0.7 3.3,1.8 l -1.6,0.9 c -0.3,-0.7 -0.9,-1 -1.7,-1 -0.7,0 -1.3,0.3 -1.3,0.9 0.1,1.8 4.9,0.8 4.9,4.1 z"
   class="st1" />
			</g>
			<g
   id="g203">
				<path
   id="path201"
   d="m 936.8,963.2 c 0,-0.7 0.6,-1.3 1.3,-1.3 0.7,0 1.3,0.6 1.3,1.3 0,0.7 -0.6,1.3 -1.3,1.3 -0.7,0 -1.3,-0.6 -1.3,-1.3 z"
   class="st1" />
			</g>
			<g
   id="g207">
				<path
   id="path205"
   d="m 940.3,959.9 c 0,-2.6 2,-4.7 4.7,-4.7 1.7,0 3.2,0.9 3.9,2.3 l -1.6,1 c -0.4,-0.8 -1.3,-1.4 -2.3,-1.4 -1.6,0 -2.7,1.2 -2.7,2.8 0,1.6 1.2,2.8 2.7,2.8 1.1,0 1.9,-0.5 2.4,-1.4 l 1.6,0.9 c -0.7,1.4 -2.2,2.3 -4,2.3 -2.7,0 -4.7,-2 -4.7,-4.6 z"
   class="st1" />
			</g>
			<g
   id="g211">
				<path
   id="path209"
   d="m 949.7,959.9 c 0,-2.6 2.1,-4.7 4.7,-4.7 2.6,0 4.7,2 4.7,4.7 0,2.6 -2.1,4.7 -4.7,4.7 -2.6,-0.1 -4.7,-2.1 -4.7,-4.7 z m 7.5,0 c 0,-1.6 -1.2,-2.8 -2.8,-2.8 -1.6,0 -2.8,1.2 -2.8,2.8 0,1.6 1.2,2.8 2.8,2.8 1.6,0 2.8,-1.2 2.8,-2.8 z"
   class="st1" />
			</g>
		</g>
	</g>
</g>

<path
   id="XMLID_116_"
   class="st5"
   d="m 119,205.7 v 0 c -10.5,0 -19,-8.5 -19,-19 V 37.699998 h 38 V 186.7 c 0,10.5 -8.5,19 -19,19 z" /><path
   id="XMLID_114_"
   class="st6"
   d="M 141,21.699998 H 97 c -4.4,0 -8,3.6 -8,8 v 0 c 0,4.4 3.6,8 8,8 h 44 c 4.4,0 8,-3.6 8,-8 v 0 c 0,-4.4 -3.6,-8 -8,-8 z" /><path
   id="XMLID_96_"
   class="st7"
   d="m 119,205.7 v 0 c -10.5,0 -19,-8.5 -19,-19 V 37.699998 h 38 V 186.7 c 0,10.5 -8.5,19 -19,19 z" /><path
   id="XMLID_95_"
   class="st7"
   d="M 141,21.699998 H 97 c -4.4,0 -8,3.6 -8,8 v 0 c 0,4.4 3.6,8 8,8 h 44 c 4.4,0 8,-3.6 8,-8 v 0 c 0,-4.4 -3.6,-8 -8,-8 z" /><path
   id="XMLID_113_"
   class="st8"
   d="m 109,132.7 v 54 c 0,5.5 4.5,10 10,10 5.5,0 10,-4.5 10,-10 v -54 z" /><path
   id="XMLID_107_"
   class="st7"
   d="m 109,132.7 v 54 c 0,5.5 4.5,10 10,10 5.5,0 10,-4.5 10,-10 v -54 z" />
<path
   id="XMLID_110_"
   class="st5"
   d="m 51.1,205.7 v 0 c -10.5,0 -19,-8.5 -19,-19 V 37.699998 h 38 V 186.7 c 0,10.5 -8.5,19 -19,19 z" /><path
   id="XMLID_69_"
   class="st7"
   d="m 51.1,205.7 v 0 c -10.5,0 -19,-8.5 -19,-19 V 37.699998 h 38 V 186.7 c 0,10.5 -8.5,19 -19,19 z" /><rect
   id="XMLID_112_"
   x="35.400021"
   y="2"
   class="st13"
   width="31.5"
   height="35.700001" /><rect
   id="XMLID_111_"
   x="35.400021"
   y="2"
   class="st7"
   width="31.5"
   height="35.700001" /><path
   id="XMLID_68_"
   class="st6"
   d="m 73.1,21.699998 h -44 c -4.4,0 -8,3.6 -8,8 v 0 c 0,4.4 3.6,8 8,8 h 44 c 4.4,0 8,-3.6 8,-8 v 0 c 0,-4.4 -3.6,-8 -8,-8 z" /><path
   id="XMLID_67_"
   class="st7"
   d="m 73.1,21.699998 h -44 c -4.4,0 -8,3.6 -8,8 v 0 c 0,4.4 3.6,8 8,8 h 44 c 4.4,0 8,-3.6 8,-8 v 0 c 0,-4.4 -3.6,-8 -8,-8 z" /><path
   id="XMLID_104_"
   class="st14"
   d="M 41.1,79.699998 V 186.7 c 0,5.5 4.5,10 10,10 5.5,0 10,-4.5 10,-10 V 79.699998 Z" /><path
   id="XMLID_125_"
   class="st7"
   d="M 41.1,79.699998 V 186.7 c 0,5.5 4.5,10 10,10 5.5,0 10,-4.5 10,-10 V 79.699998 Z" />








<path
   d="m 51.1,205.7 v 0 c -10.5,0 -19,-8.5 -19,-19 V 37.699998 h 38 V 186.7 c 0,10.5 -8.5,19 -19,19 z"
   class="st7"
   id="XMLID_232_" />
<g
   transform="translate(-731,-560.3)"
   id="g466">
	<path
   id="path462"
   d="M 900,741 H 733 v 14 h 29.1 c 2.7,7.9 10.1,13.5 18.9,13.5 8.8,0 16.2,-5.6 18.9,-13.5 h 30 c 2.5,8.1 10.1,14 19.1,14 9,0 16.5,-5.9 19.1,-14 H 900 Z"
   class="st15" />
	<path
   id="path464"
   d="M 900,741 H 733 v 14 h 29.1 c 2.7,7.9 10.1,13.5 18.9,13.5 8.8,0 16.2,-5.6 18.9,-13.5 h 30 c 2.5,8.1 10.1,14 19.1,14 9,0 16.5,-5.9 19.1,-14 H 900 Z"
   class="st7" />
</g>
</svg>
