<?xml version="1.0" encoding="UTF-8" standalone="no"?>
<svg
   xmlns:dc="http://purl.org/dc/elements/1.1/"
   xmlns:cc="http://creativecommons.org/ns#"
   xmlns:rdf="http://www.w3.org/1999/02/22-rdf-syntax-ns#"
   xmlns:svg="http://www.w3.org/2000/svg"
   xmlns="http://www.w3.org/2000/svg"
   height="179.3"
   width="218.10001"
   xml:space="preserve"
   viewBox="0 0 218.10001 179.3"
   y="0px"
   x="0px"
   id="Layer_1"
   version="1.1"><metadata
   id="metadata367"><rdf:RDF><cc:Work
       rdf:about=""><dc:format>image/svg+xml</dc:format><dc:type
         rdf:resource="http://purl.org/dc/dcmitype/StillImage" /><dc:title></dc:title></cc:Work></rdf:RDF></metadata><defs
   id="defs365">
	
	
	

		
		
		
		
		
		
		
		
		
		
		
		
		
		
		
		
			
		
		
			
		
		
		
		
		
		
		
		
		
		
		
		
		
		
		
		
		
		
		
		
		
		
		
	
		
		
		
		
		
	</defs>
<style
   id="style2"
   type="text/css">
	.st0{fill:#EAECEF;}
	.st1{fill:#2D425E;}
	.st2{fill:#C9C9C9;}
	.st3{fill:#CECECE;}
	.st4{fill:#FFFFFF;}
	.st5{fill:none;stroke:#1F3969;stroke-width:4;stroke-linecap:round;stroke-linejoin:round;stroke-miterlimit:10;}
	.st6{fill:#FF3E3E;}
	.st7{opacity:0.28;fill:#1F3969;stroke:#1F3969;stroke-width:4;stroke-linecap:round;stroke-linejoin:round;stroke-miterlimit:10;}
	.st8{fill:#50B56F;}
	.st9{fill:#5F5AFF;}
	.st10{fill:#F6F9FD;}
	.st11{fill:#BFCFE2;}
	.st12{fill:#D0DDF0;}
	.st13{fill:#2AA1FF;}
	.st14{opacity:0.34;fill:none;stroke:#FFFFFF;stroke-width:2;stroke-linecap:round;stroke-linejoin:round;stroke-miterlimit:10;}
	.st15{opacity:0.34;}
	.st16{fill:none;stroke:#FFFFFF;stroke-width:2;stroke-linecap:round;stroke-linejoin:round;stroke-miterlimit:10;}
	.st17{fill:#1F3969;}
	.st18{fill:none;stroke:#FFFFFF;stroke-width:4;stroke-linecap:round;stroke-linejoin:round;stroke-miterlimit:10;}
	.st19{fill:none;stroke:#7BFFA0;stroke-width:4;stroke-linecap:round;stroke-linejoin:round;stroke-miterlimit:10;}
	.st20{fill:none;stroke:#9169FF;stroke-width:4;stroke-linecap:round;stroke-linejoin:round;stroke-miterlimit:10;}
	.st21{fill:none;stroke:#FFC47D;stroke-width:4;stroke-linecap:round;stroke-linejoin:round;stroke-miterlimit:10;}
	.st22{fill:none;stroke:#FF5757;stroke-width:4;stroke-linecap:round;stroke-linejoin:round;stroke-miterlimit:10;}
	.st23{fill:#FFA364;}
	.st24{fill:#FF5252;}
	.st25{fill:#6567C3;}
</style>


<path
   d="m 2,30.7 v 138.6 c 0,4.4 3.6,8 8,8 h 189.1 c 4.4,0 8,-3.6 8,-8 V 30.7 Z"
   class="st7"
   id="XMLID_197_" /><path
   d="M 208.1,166.3 H 19 c -4.4,0 -8,-3.6 -8,-8 V 10.1 c 0,-4.4 3.6,-8 8,-8 h 189.1 c 4.4,0 8,3.6 8,8 v 148.3 c 0,4.4 -3.6,7.9 -8,7.9 z"
   class="st1"
   id="XMLID_15_" /><path
   d="M 216.1,21.5 H 11 V 10 c 0,-4.4 3.6,-8 8,-8 h 189.1 c 4.4,0 8,3.6 8,8 z"
   class="st5"
   id="XMLID_17_" /><path
   d="M 216.1,25.3 H 11 V 10 c 0,-4.4 3.6,-8 8,-8 h 189.1 c 4.4,0 8,3.6 8,8 z"
   class="st12"
   id="XMLID_23_" /><path
   d="M 216.1,25.3 H 11 V 10 c 0,-4.4 3.6,-8 8,-8 h 189.1 c 4.4,0 8,3.6 8,8 z"
   class="st5"
   id="XMLID_18_" /><path
   d="M 216.1,25.3 H 11 V 10 c 0,-4.4 3.6,-8 8,-8 h 189.1 c 4.4,0 8,3.6 8,8 z"
   class="st5"
   id="XMLID_20_" /><path
   d="M 208.1,166.3 H 19 c -4.4,0 -8,-3.6 -8,-8 V 10.1 c 0,-4.4 3.6,-8 8,-8 h 189.1 c 4.4,0 8,3.6 8,8 v 148.3 c 0,4.4 -3.6,7.9 -8,7.9 z"
   class="st5"
   id="XMLID_12_" /><circle
   r="4"
   cy="13.699987"
   cx="31.1"
   class="st17"
   id="XMLID_24_" /><circle
   r="4"
   cy="13.699987"
   cx="44.999992"
   class="st17"
   id="XMLID_28_" /><circle
   r="4"
   cy="13.699987"
   cx="58.899986"
   class="st17"
   id="XMLID_38_" /><g
   transform="translate(-381.9,-343.6)"
   id="XMLID_61_">
			<line
   y2="387.39999"
   x2="523.70001"
   y1="387.39999"
   x1="510.70001"
   class="st18"
   id="XMLID_54_" />
			<line
   y2="387.39999"
   x2="501.10001"
   y1="387.39999"
   x1="444.79999"
   class="st19"
   id="XMLID_66_" />
			<line
   y2="387.39999"
   x2="436.79999"
   y1="387.39999"
   x1="417"
   class="st20"
   id="XMLID_29_" />
		</g><g
   transform="translate(-381.9,-343.6)"
   id="XMLID_42_">
			<line
   y2="485.89999"
   x2="485.79999"
   y1="485.89999"
   x1="442.79999"
   class="st20"
   id="XMLID_62_" />
			<line
   y2="485.89999"
   x2="430.89999"
   y1="485.89999"
   x1="417"
   class="st19"
   id="XMLID_30_" />
		</g><g
   transform="translate(-381.9,-343.6)"
   id="XMLID_27_">
			<line
   y2="399.70001"
   x2="509.20001"
   y1="399.70001"
   x1="501.10001"
   class="st18"
   id="XMLID_60_" />
			<line
   y2="399.70001"
   x2="491.5"
   y1="399.70001"
   x1="464.29999"
   class="st20"
   id="XMLID_45_" />
			<line
   y2="399.70001"
   x2="454.60001"
   y1="399.70001"
   x1="426.89999"
   class="st21"
   id="XMLID_47_" />
		</g><g
   transform="translate(-381.9,-343.6)"
   id="XMLID_49_">
			<line
   y2="412"
   x2="493.70001"
   y1="412"
   x1="469.79999"
   class="st18"
   id="XMLID_59_" />
			<line
   y2="412"
   x2="462.29999"
   y1="412"
   x1="439.79999"
   class="st22"
   id="XMLID_50_" />
		</g><g
   transform="translate(-381.9,-343.6)"
   id="XMLID_65_">
			<line
   y2="424.29999"
   x2="477.89999"
   y1="424.29999"
   x1="473"
   class="st18"
   id="XMLID_58_" />
			<line
   y2="424.29999"
   x2="464.29999"
   y1="424.29999"
   x1="453.20001"
   class="st20"
   id="XMLID_70_" />
			<line
   y2="424.29999"
   x2="444.79999"
   y1="424.29999"
   x1="426.89999"
   class="st19"
   id="XMLID_67_" />
		</g><g
   transform="translate(-381.9,-343.6)"
   id="XMLID_73_">
			<line
   y2="436.70001"
   x2="497.20001"
   y1="436.70001"
   x1="465.29999"
   class="st21"
   id="XMLID_77_" />
			<line
   y2="436.70001"
   x2="455.5"
   y1="436.70001"
   x1="426.89999"
   class="st22"
   id="XMLID_74_" />
		</g><g
   transform="translate(-381.9,-343.6)"
   id="XMLID_80_">
			<line
   y2="449"
   x2="519.5"
   y1="449"
   x1="502.20001"
   class="st20"
   id="XMLID_64_" />
			<line
   y2="449"
   x2="493"
   y1="449"
   x1="465.29999"
   class="st22"
   id="XMLID_84_" />
			<line
   y2="449"
   x2="455.5"
   y1="449"
   x1="439.79999"
   class="st19"
   id="XMLID_81_" />
		</g><g
   transform="translate(-381.9,-343.6)"
   id="XMLID_87_">
			<line
   y2="461.29999"
   x2="493"
   y1="461.29999"
   x1="477.89999"
   class="st18"
   id="XMLID_95_" />
			<line
   y2="461.29999"
   x2="467.5"
   y1="461.29999"
   x1="439.79999"
   class="st20"
   id="XMLID_90_" />
		</g><g
   transform="translate(-381.9,-343.6)"
   id="XMLID_98_">
			<line
   y2="473.60001"
   x2="534.5"
   y1="473.60001"
   x1="517.20001"
   class="st18"
   id="XMLID_71_" />
			<line
   y2="473.60001"
   x2="507.79999"
   y1="473.60001"
   x1="464.29999"
   class="st21"
   id="XMLID_102_" />
			<line
   y2="473.60001"
   x2="454.60001"
   y1="473.60001"
   x1="426.89999"
   class="st18"
   id="XMLID_99_" />
		</g>

</svg>
