<?xml version="1.0" encoding="UTF-8" standalone="no"?>
<svg
   xmlns:dc="http://purl.org/dc/elements/1.1/"
   xmlns:cc="http://creativecommons.org/ns#"
   xmlns:rdf="http://www.w3.org/1999/02/22-rdf-syntax-ns#"
   xmlns:svg="http://www.w3.org/2000/svg"
   xmlns="http://www.w3.org/2000/svg"
   xmlns:sodipodi="http://sodipodi.sourceforge.net/DTD/sodipodi-0.dtd"
   xmlns:inkscape="http://www.inkscape.org/namespaces/inkscape"
   height="381.79999"
   width="365.20001"
   inkscape:version="1.0 (6e3e5246a0, 2020-05-07)"
   sodipodi:docname="vault.svg"
   xml:space="preserve"
   viewBox="0 0 365.20001 381.79999"
   y="0px"
   x="0px"
   id="Layer_1"
   version="1.1"><metadata
   id="metadata141"><rdf:RDF><cc:Work
       rdf:about=""><dc:format>image/svg+xml</dc:format><dc:type
         rdf:resource="http://purl.org/dc/dcmitype/StillImage" /><dc:title></dc:title></cc:Work></rdf:RDF></metadata><defs
   id="defs139">	
	
</defs><sodipodi:namedview
   fit-margin-bottom="0"
   fit-margin-right="0"
   fit-margin-left="0"
   fit-margin-top="0"
   inkscape:pagecheckerboard="true"
   inkscape:current-layer="Layer_1"
   inkscape:window-maximized="0"
   inkscape:window-y="112"
   inkscape:window-x="2556"
   inkscape:cy="389.00142"
   inkscape:cx="429.95252"
   inkscape:zoom="0.4525"
   showgrid="false"
   id="namedview137"
   inkscape:window-height="1106"
   inkscape:window-width="2110"
   inkscape:pageshadow="2"
   inkscape:pageopacity="0"
   guidetolerance="10"
   gridtolerance="10"
   objecttolerance="10"
   borderopacity="1"
   bordercolor="#666666"
   pagecolor="#ffffff" />
<style
   id="style2"
   type="text/css">
	.st0{fill:#F7B85C;}
	.st1{fill:#EEF2F4;}
	.st2{enable-background:new    ;}
	.st3{fill:#212552;}
	.st4{fill:#92D6E9;}
	
		.st5{opacity:0.3;fill:#0A1E2B;stroke:#0A1E2B;stroke-width:6;stroke-linecap:round;stroke-linejoin:round;stroke-miterlimit:10;enable-background:new    ;}
	.st6{fill:none;stroke:#212552;stroke-width:6;stroke-linecap:round;stroke-linejoin:round;stroke-miterlimit:10;}
	.st7{fill:#CBEDF9;}
	.st8{fill:#E8F9FF;}
	
		.st9{opacity:0.23;fill:#0A1E2B;stroke:#0A1E2B;stroke-width:6;stroke-linecap:round;stroke-linejoin:round;stroke-miterlimit:10;enable-background:new    ;}
	.st10{fill:none;stroke:#212552;stroke-width:10;stroke-linecap:round;stroke-linejoin:round;stroke-miterlimit:10;}
	.st11{fill:#FFEA9E;}
	.st12{fill:#EDC75D;}
	.st13{fill:none;stroke:#212552;stroke-width:8;stroke-linecap:round;stroke-linejoin:round;stroke-miterlimit:10;}
	.st14{fill:#5F9E71;stroke:#212552;stroke-width:6;stroke-linecap:round;stroke-linejoin:round;stroke-miterlimit:10;}
	.st15{fill:#90C49E;}
	.st16{fill:#FFFFFF;}
</style>


<ellipse
   ry="22.799999"
   rx="182.60001"
   cy="359"
   cx="182.60001"
   class="st3"
   id="XMLID_75_" />
<path
   id="XMLID_20_"
   class="st4"
   d="m 142.10001,342.9 v -7.4 c 0,-3.3 -2.7,-6 -6,-6 H 70.100006 c -3.3,0 -6,2.7 -6,6 v 22 c 0,3.3 2.7,6 6,6 h 43.900004 c 4.8,0 9.4,-1.9 12.8,-5.3 z" /><path
   id="XMLID_50_"
   class="st5"
   d="M 136.10001,329.5 H 70.100006 c -3.3,0 -6,2.7 -6,6 v 20.4 h 65.000004 l 13,-13 v -7.4 c 0,-3.3 -2.7,-6 -6,-6 z" /><path
   id="XMLID_18_"
   class="st4"
   d="m 223.10001,342.9 v -7.4 c 0,-3.3 2.7,-6 6,-6 h 66 c 3.3,0 6,2.7 6,6 v 22 c 0,3.3 -2.7,6 -6,6 h -43.9 c -4.8,0 -9.4,-1.9 -12.8,-5.3 z" /><path
   id="XMLID_51_"
   class="st5"
   d="m 295.10001,329.5 h -66 c -3.3,0 -6,2.7 -6,6 v 7.4 l 13,13 h 65 v -20.4 c 0,-3.3 -2.7,-6 -6,-6 z" /><path
   id="XMLID_27_"
   class="st6"
   d="m 142.10001,342.9 v -7.4 c 0,-3.3 -2.7,-6 -6,-6 H 70.100006 c -3.3,0 -6,2.7 -6,6 v 22 c 0,3.3 2.7,6 6,6 h 43.900004 c 4.8,0 9.4,-1.9 12.8,-5.3 z" /><path
   id="XMLID_26_"
   class="st6"
   d="m 223.10001,342.9 v -7.4 c 0,-3.3 2.7,-6 6,-6 h 66 c 3.3,0 6,2.7 6,6 v 22 c 0,3.3 -2.7,6 -6,6 h -43.9 c -4.8,0 -9.4,-1.9 -12.8,-5.3 z" /><path
   id="XMLID_2_"
   class="st7"
   d="M 312.60001,343 H 52.600006 c -22.1,0 -40,-17.9 -40,-40 V 43 c 0,-22.1 17.9,-40 40,-40 H 312.60001 c 22.1,0 40,17.9 40,40 v 260 c 0,22.1 -17.9,40 -40,40 z" /><path
   id="XMLID_38_"
   class="st8"
   d="M 312.60001,3 H 52.600006 c -22.1,0 -40,17.9 -40,40 v 23 c 0,-22.1 17.9,-40 40,-40 H 312.60001 c 22.1,0 40,17.9 40,40 V 43 c 0,-22.1 -17.9,-40 -40,-40 z" /><path
   id="XMLID_45_"
   class="st4"
   d="M 312.60001,320 H 52.600006 c -22.1,0 -40,-17.9 -40,-40 v 23 c 0,22.1 17.9,40 40,40 H 312.60001 c 22.1,0 40,-17.9 40,-40 v -23 c 0,22.1 -17.9,40 -40,40 z" /><path
   id="XMLID_19_"
   class="st6"
   d="M 312.60001,343 H 52.600006 c -22.1,0 -40,-17.9 -40,-40 V 43 c 0,-22.1 17.9,-40 40,-40 H 312.60001 c 22.1,0 40,17.9 40,40 v 260 c 0,22.1 -17.9,40 -40,40 z" /><path
   id="XMLID_82_"
   class="st8"
   d="M 300.60001,39 H 64.600006 c -8.8,0 -16,7.2 -16,16 v 8 c 0,-8.8 7.2,-13 16,-13 H 300.60001 c 8.8,0 16,4.2 16,13 v -8 c 0,-8.9 -7.2,-16 -16,-16 z" /><path
   id="XMLID_83_"
   class="st4"
   d="M 300.60001,294 H 64.600006 c -8.8,0 -16,-7.2 -16,-16 v 13 c 0,8.8 7.2,16 16,16 H 300.60001 c 8.8,0 16,-7.2 16,-16 v -13 c 0,8.8 -7.2,16 -16,16 z" /><path
   id="XMLID_7_"
   class="st6"
   d="m 64.600006,307 c -8.8,0 -16,-7.2 -16,-16 V 55 c 0,-8.8 7.2,-16 16,-16 H 300.60001 c 8.8,0 16,7.2 16,16 v 236 c 0,8.8 -7.2,16 -16,16 z" /><path
   id="XMLID_48_"
   class="st9"
   d="m 287.90001,268.1 h -2 c -2.2,0 -4,-1.8 -4,-4 v -152 c 0,-2.2 1.8,-4 4,-4 h 2 c 2.2,0 4,1.8 4,4 v 152 c 0,2.2 -1.8,4 -4,4 z" /><path
   id="XMLID_13_"
   class="st4"
   d="m 287.90001,248.1 h -2 c -2.2,0 -4,-1.8 -4,-4 v -152 c 0,-2.2 1.8,-4 4,-4 h 2 c 2.2,0 4,1.8 4,4 v 152 c 0,2.2 -1.8,4 -4,4 z" /><path
   id="XMLID_14_"
   class="st6"
   d="m 287.90001,248.1 h -2 c -2.2,0 -4,-1.8 -4,-4 v -152 c 0,-2.2 1.8,-4 4,-4 h 2 c 2.2,0 4,1.8 4,4 v 152 c 0,2.2 -1.8,4 -4,4 z" /><circle
   id="XMLID_39_"
   class="st9"
   cx="182.60001"
   cy="181"
   r="65" /><circle
   id="XMLID_32_"
   class="st7"
   cx="182.60001"
   cy="173"
   r="65" /><circle
   id="XMLID_5_"
   class="st6"
   cx="182.60001"
   cy="173"
   r="65" /><circle
   id="XMLID_34_"
   class="st4"
   cx="182.60001"
   cy="173"
   r="54" /><line
   id="XMLID_10_"
   class="st10"
   x1="182.60001"
   y1="132"
   x2="182.60001"
   y2="214" /><line
   id="XMLID_8_"
   class="st10"
   x1="223.60001"
   y1="173"
   x2="141.60001"
   y2="173" /><line
   id="XMLID_12_"
   class="st10"
   x1="211.60001"
   y1="144"
   x2="153.60001"
   y2="202" /><line
   id="XMLID_11_"
   class="st10"
   x1="211.60001"
   y1="202"
   x2="153.60001"
   y2="144" /><path
   id="XMLID_37_"
   class="st5"
   d="m 182.60001,220.7 v 0 c -13.8,0 -25,-11.2 -25,-25 v -25 h 50 v 25 c 0,13.8 -11.2,25 -25,25 z" /><path
   id="XMLID_46_"
   class="st9"
   d="m 48.600006,135.5 v 0 c -4.4,0 -8,-3.6 -8,-8 v -24 c 0,-4.4 3.6,-8 8,-8 v 0 c 4.4,0 8,3.6 8,8 v 24 c 0,4.4 -3.6,8 -8,8 z" /><path
   id="XMLID_52_"
   class="st9"
   d="m 48.600006,266 v 0 c -4.4,0 -8,-3.6 -8,-8 v -24 c 0,-4.4 3.6,-8 8,-8 v 0 c 4.4,0 8,3.6 8,8 v 24 c 0,4.4 -3.6,8 -8,8 z" /><path
   id="XMLID_36_"
   class="st4"
   d="m 48.600006,127.5 v 0 c -4.4,0 -8,-3.6 -8,-8 v -24 c 0,-4.4 3.6,-8 8,-8 v 0 c 4.4,0 8,3.6 8,8 v 24 c 0,4.4 -3.6,8 -8,8 z" /><path
   id="XMLID_33_"
   class="st4"
   d="m 48.600006,258.5 v 0 c -4.4,0 -8,-3.6 -8,-8 v -24 c 0,-4.4 3.6,-8 8,-8 v 0 c 4.4,0 8,3.6 8,8 v 24 c 0,4.4 -3.6,8 -8,8 z" /><path
   id="XMLID_15_"
   class="st6"
   d="m 48.600006,127.5 v 0 c -4.4,0 -8,-3.6 -8,-8 v -24 c 0,-4.4 3.6,-8 8,-8 v 0 c 4.4,0 8,3.6 8,8 v 24 c 0,4.4 -3.6,8 -8,8 z" /><path
   id="XMLID_17_"
   class="st6"
   d="m 48.600006,258.5 v 0 c -4.4,0 -8,-3.6 -8,-8 v -24 c 0,-4.4 3.6,-8 8,-8 v 0 c 4.4,0 8,3.6 8,8 v 24 c 0,4.4 -3.6,8 -8,8 z" /><circle
   id="XMLID_29_"
   class="st11"
   cx="182.60001"
   cy="173"
   r="25" /><circle
   id="XMLID_72_"
   class="st12"
   cx="182.60001"
   cy="173"
   r="11.2" /><circle
   id="XMLID_9_"
   class="st13"
   cx="182.60001"
   cy="173"
   r="23" />

</svg>
