<?xml version="1.0" encoding="utf-8"?>
<!-- Generated by IcoMoon.io -->
<!DOCTYPE svg PUBLIC "-//W3C//DTD SVG 1.1//EN" "http://www.w3.org/Graphics/SVG/1.1/DTD/svg11.dtd">
<svg version="1.1" xmlns="http://www.w3.org/2000/svg" xmlns:xlink="http://www.w3.org/1999/xlink" width="24" height="28" viewBox="0 0 24 28">
<path d="M22.937 5.938c0.578 0.578 1.062 1.734 1.062 2.562v18c0 0.828-0.672 1.5-1.5 1.5h-21c-0.828 0-1.5-0.672-1.5-1.5v-25c0-0.828 0.672-1.5 1.5-1.5h14c0.828 0 1.984 0.484 2.562 1.062zM16 2.125v5.875h5.875c-0.094-0.266-0.234-0.531-0.344-0.641l-4.891-4.891c-0.109-0.109-0.375-0.25-0.641-0.344zM22 26v-16h-6.5c-0.828 0-1.5-0.672-1.5-1.5v-6.5h-12v24h20zM7.5 12c0.172-0.219 0.484-0.266 0.703-0.094l0.797 0.594c0.219 0.172 0.266 0.484 0.094 0.703l-2.844 3.797 2.844 3.797c0.172 0.219 0.125 0.531-0.094 0.703l-0.797 0.594c-0.219 0.172-0.531 0.125-0.703-0.094l-3.531-4.703c-0.125-0.172-0.125-0.422 0-0.594zM20.031 16.703c0.125 0.172 0.125 0.422 0 0.594l-3.531 4.703c-0.172 0.219-0.484 0.266-0.703 0.094l-0.797-0.594c-0.219-0.172-0.266-0.484-0.094-0.703l2.844-3.797-2.844-3.797c-0.172-0.219-0.125-0.531 0.094-0.703l0.797-0.594c0.219-0.172 0.531-0.125 0.703 0.094zM10.344 23.906c-0.281-0.047-0.453-0.313-0.406-0.578l2.156-12.984c0.047-0.281 0.313-0.453 0.578-0.406l0.984 0.156c0.281 0.047 0.453 0.313 0.406 0.578l-2.156 12.984c-0.047 0.281-0.313 0.453-0.578 0.406z"></path>
</svg>
